<svg xmlns="http://www.w3.org/2000/svg" viewBox="0 0 17.56 17.56"><defs><style>.cls-1{fill:#fff;fill-rule:evenodd;}</style></defs><g id="Layer_2" data-name="Layer 2"><g id="Layer_1-2" data-name="Layer 1"><path class="cls-1" d="M17.38,7a8.07,8.07,0,0,0-.51-1.65,8.6,8.6,0,0,0-.81-1.49A8.8,8.8,0,0,0,15,2.57a8.91,8.91,0,0,0-1.3-1.07A8.6,8.6,0,0,0,12.2.69a8.83,8.83,0,0,0-6.84,0,8.6,8.6,0,0,0-1.49.81,9.48,9.48,0,0,0-1.3,1.07A9.48,9.48,0,0,0,1.5,3.87,8.6,8.6,0,0,0,.69,5.36a8.83,8.83,0,0,0,0,6.84,8.6,8.6,0,0,0,.81,1.49A8.91,8.91,0,0,0,2.57,15a8.8,8.8,0,0,0,1.3,1.07,8.6,8.6,0,0,0,1.49.81A8.07,8.07,0,0,0,7,17.38a8.79,8.79,0,0,0,3.54,0,8.07,8.07,0,0,0,1.65-.51,8.6,8.6,0,0,0,1.49-.81,8.72,8.72,0,0,0,2.37-2.37,8.6,8.6,0,0,0,.81-1.49,8.07,8.07,0,0,0,.51-1.65,8.79,8.79,0,0,0,0-3.54Zm-1.1,1.7a17.25,17.25,0,0,0-5.23-.25c-.05-.13-.1-.26-.16-.39-.15-.36-.32-.73-.5-1.08a9.56,9.56,0,0,0,4.18-3A7.48,7.48,0,0,1,16.28,8.71ZM13.73,3.15A8.11,8.11,0,0,1,9.82,5.87,36.31,36.31,0,0,0,7,1.49a7.94,7.94,0,0,1,1.77-.21A7.47,7.47,0,0,1,13.73,3.15ZM7,1.5ZM5.58,2A43.9,43.9,0,0,1,8.37,6.32a27.89,27.89,0,0,1-6.93.92A7.52,7.52,0,0,1,5.58,2ZM1.28,8.78c0-.08,0-.16,0-.24A27.25,27.25,0,0,0,9,7.48c.21.42.42.84.61,1.27l-.3.09a11.86,11.86,0,0,0-6.1,4.95h0A7.48,7.48,0,0,1,1.28,8.78Zm7.5,7.5A7.51,7.51,0,0,1,4,14.56l.17.13A10.18,10.18,0,0,1,10.06,10l0,0a31.36,31.36,0,0,1,1.6,5.7A7.51,7.51,0,0,1,8.78,16.28ZM13,15a33.56,33.56,0,0,0-1.46-5.36,11,11,0,0,1,4.68.33A7.5,7.5,0,0,1,13,15Z"/></g></g></svg>