<svg xmlns="http://www.w3.org/2000/svg" viewBox="0 0 17.7 15.9"><defs><style>.cls-1{fill:#fff;}</style></defs><g id="Layer_2" data-name="Layer 2"><g id="Layer_1-2" data-name="Layer 1"><path class="cls-1" d="M17.33,6.46H14.66V3.79a.37.37,0,0,0-.37-.37h-.76a.36.36,0,0,0-.37.37V6.46H10.49a.37.37,0,0,0-.37.36v.76a.37.37,0,0,0,.37.37h2.67v2.67a.36.36,0,0,0,.37.37h.76a.37.37,0,0,0,.37-.37V8h2.67a.37.37,0,0,0,.37-.37V6.82A.37.37,0,0,0,17.33,6.46Z"/><path class="cls-1" d="M8.36,8.79A3.08,3.08,0,0,1,7.28,7.63c0-.32,0-.48.76-1A3.51,3.51,0,0,0,9.51,3.84,3.62,3.62,0,0,0,8.73,1.5h.38a.41.41,0,0,0,.22-.07L10.38.67a.36.36,0,0,0,.13-.41A.36.36,0,0,0,10.16,0H5.47A4.64,4.64,0,0,0,3.92.27,4,4,0,0,0,1,3.81,3.78,3.78,0,0,0,4.85,7.59a2.12,2.12,0,0,0-.06.49A1.87,1.87,0,0,0,5,9H5a5.13,5.13,0,0,0-4.7,2.56A2.73,2.73,0,0,0,0,12.77a2.3,2.3,0,0,0,.29,1.11A4.2,4.2,0,0,0,3,15.64a8.79,8.79,0,0,0,2.15.26,7,7,0,0,0,1.92-.26,3.83,3.83,0,0,0,3.07-3.5A3.64,3.64,0,0,0,8.36,8.79ZM2.43,12.27c0-1.11,1.4-2.07,3-2.07h0a3.38,3.38,0,0,1,1,.15l.32.22c.74.5,1.23.83,1.36,1.37a1.37,1.37,0,0,1,.05.4c0,1.37-1,2.07-3.05,2.07C3.63,14.41,2.43,13.47,2.43,12.27ZM3.88,1.84a1.22,1.22,0,0,1,1-.44h0c1,0,2,1.19,2.21,2.58a2.5,2.5,0,0,1-.46,2,1.24,1.24,0,0,1-1,.44h0c-1,0-2-1.24-2.21-2.63A2.41,2.41,0,0,1,3.88,1.84Z"/></g></g></svg>