<svg xmlns="http://www.w3.org/2000/svg" viewBox="0 0 17.5 14.22"><defs><style>.cls-1{fill:#fff;}</style></defs><g id="Layer_2" data-name="Layer 2"><g id="Layer_1-2" data-name="Layer 1"><path class="cls-1" d="M17.5,1.68a7.15,7.15,0,0,1-2.06.57A3.64,3.64,0,0,0,17,.26a7.33,7.33,0,0,1-2.28.87A3.62,3.62,0,0,0,12.12,0,3.59,3.59,0,0,0,8.53,3.59a3.75,3.75,0,0,0,.09.82A10.19,10.19,0,0,1,1.22.66a3.54,3.54,0,0,0-.49,1.8,3.6,3.6,0,0,0,1.6,3A3.61,3.61,0,0,1,.7,5v0A3.59,3.59,0,0,0,3.58,8.57a3.67,3.67,0,0,1-.94.12A3.82,3.82,0,0,1,2,8.63a3.6,3.6,0,0,0,3.35,2.49A7.18,7.18,0,0,1,.86,12.66,8.11,8.11,0,0,1,0,12.61a10.16,10.16,0,0,0,5.5,1.61A10.14,10.14,0,0,0,15.72,4c0-.16,0-.31,0-.47A7.2,7.2,0,0,0,17.5,1.68Z"/></g></g></svg>