<svg xmlns="http://www.w3.org/2000/svg" viewBox="0 0 17.42 17.04"><defs><style>.cls-1{fill:#fff;}</style></defs><g id="Layer_2" data-name="Layer 2"><g id="Layer_1-2" data-name="Layer 1"><path class="cls-1" d="M14.24,8.12H3.18A3.18,3.18,0,0,0,0,11.3v2.56A3.18,3.18,0,0,0,3.18,17H14.24a3.18,3.18,0,0,0,3.18-3.18V11.3A3.18,3.18,0,0,0,14.24,8.12Zm-8.73,2h-1v5.11h-1V10.11h-1V9.24H5.51Zm2.9,5.11H7.53v-.49a1.74,1.74,0,0,1-.51.41,1,1,0,0,1-.51.14.52.52,0,0,1-.46-.2.94.94,0,0,1-.16-.59V10.81h.88v3.38a.32.32,0,0,0,.06.22.22.22,0,0,0,.18.08.48.48,0,0,0,.25-.1,1.18,1.18,0,0,0,.27-.23V10.81h.88Zm3.2-.91a1.06,1.06,0,0,1-.21.71.73.73,0,0,1-.6.25,1.11,1.11,0,0,1-.46-.09,1.32,1.32,0,0,1-.38-.3v.34H9.07v-6H10v1.92a1.47,1.47,0,0,1,.38-.3.9.9,0,0,1,.41-.11.77.77,0,0,1,.64.29,1.27,1.27,0,0,1,.22.82Zm3.05-1.19H13V14a1.06,1.06,0,0,0,.08.48.34.34,0,0,0,.3.14.36.36,0,0,0,.31-.12.88.88,0,0,0,.09-.5v-.2h.9V14a1.43,1.43,0,0,1-.33,1,1.35,1.35,0,0,1-1,.34,1.2,1.2,0,0,1-.93-.37,1.42,1.42,0,0,1-.34-1V12a1.24,1.24,0,0,1,.38-.93,1.31,1.31,0,0,1,1-.36,1.26,1.26,0,0,1,.93.33,1.31,1.31,0,0,1,.32,1Z"/><path class="cls-1" d="M13.37,11.47a.35.35,0,0,0-.3.12A.67.67,0,0,0,13,12v.44h.78V12a.67.67,0,0,0-.09-.4A.35.35,0,0,0,13.37,11.47Z"/><path class="cls-1" d="M10.33,11.45a.41.41,0,0,0-.18.05.46.46,0,0,0-.19.13v2.75a1.17,1.17,0,0,0,.21.16.54.54,0,0,0,.22,0,.29.29,0,0,0,.23-.09.47.47,0,0,0,.08-.3V11.91a.55.55,0,0,0-.09-.34A.35.35,0,0,0,10.33,11.45Z"/><polygon class="cls-1" points="4.63 6.59 5.75 6.59 5.75 3.85 7.05 0 5.91 0 5.22 2.63 5.15 2.63 4.43 0 3.3 0 4.63 3.98 4.63 6.59"/><path class="cls-1" d="M8.56,6.71a1.52,1.52,0,0,0,1.07-.36,1.26,1.26,0,0,0,.38-1V2.87A1.17,1.17,0,0,0,9.62,2a1.45,1.45,0,0,0-1-.35,1.66,1.66,0,0,0-1.08.33,1.1,1.1,0,0,0-.4.9V5.36a1.27,1.27,0,0,0,.39,1A1.44,1.44,0,0,0,8.56,6.71ZM8.15,2.8a.36.36,0,0,1,.11-.26.49.49,0,0,1,.3-.09.53.53,0,0,1,.32.09A.34.34,0,0,1,9,2.8V5.45a.41.41,0,0,1-.12.31.48.48,0,0,1-.32.11.41.41,0,0,1-.3-.11.45.45,0,0,1-.11-.31Z"/><path class="cls-1" d="M11.51,6.66a1.3,1.3,0,0,0,.57-.16,2,2,0,0,0,.57-.45v.54h1V1.73h-1V5.42a1.48,1.48,0,0,1-.3.26.68.68,0,0,1-.28.1.25.25,0,0,1-.2-.08.39.39,0,0,1-.07-.25V1.73h-1V5.79a1,1,0,0,0,.18.65A.65.65,0,0,0,11.51,6.66Z"/></g></g></svg>